HIERARCHY
ROOT Hips
{
OFFSET 0.000000 0.000000 0.000000
CHANNELS 6 Xposition Yposition Zposition Zrotation Xrotation Yrotation 
JOINT Spine
{
OFFSET -0.000000 4.055370 0.000000
CHANNELS 3 Zrotation Xrotation Yrotation 
JOINT Spine1
{
OFFSET -0.000000 15.969724 0.000000
CHANNELS 3 Zrotation Xrotation Yrotation 
JOINT Neck
{
OFFSET -0.000000 5.923678 0.993062
CHANNELS 3 Zrotation Xrotation Yrotation 
JOINT Head
{
OFFSET -0.000000 6.923803 -0.989115
CHANNELS 3 Zrotation Xrotation Yrotation 
End Site
{
OFFSET -0.000000 12.363933 0.000000
}
}
}
JOINT LeftShoulder
{
OFFSET 1.994443 9.819063 -0.138267
CHANNELS 3 Zrotation Xrotation Yrotation 
JOINT LeftArm
{
OFFSET 6.126652 0.000000 0.000000
CHANNELS 3 Zrotation Xrotation Yrotation 
JOINT LeftForeArm
{
OFFSET 15.831441 0.000000 0.000000
CHANNELS 3 Zrotation Xrotation Yrotation 
JOINT LeftHand
{
OFFSET 11.289333 0.000000 0.000000
CHANNELS 3 Zrotation Xrotation Yrotation 
End Site
{
OFFSET 7.418360 0.000000 0.000000
}
}
}
}
}
JOINT RightShoulder
{
OFFSET -1.951887 9.819063 -0.138267
CHANNELS 3 Zrotation Xrotation Yrotation 
JOINT RightArm
{
OFFSET -6.126652 0.000000 0.000000
CHANNELS 3 Zrotation Xrotation Yrotation 
JOINT RightForeArm
{
OFFSET -15.831441 0.000000 0.000000
CHANNELS 3 Zrotation Xrotation Yrotation 
JOINT RightHand
{
OFFSET -11.289333 0.000000 0.000000
CHANNELS 3 Zrotation Xrotation Yrotation 
End Site
{
OFFSET -7.418360 0.000000 0.000000
}
}
}
}
}
}
}
JOINT LeftUpLeg
{
OFFSET 4.945574 0.000000 0.000000
CHANNELS 3 Zrotation Xrotation Yrotation 
JOINT LeftLeg
{
OFFSET -0.000000 -19.520680 0.000000
CHANNELS 3 Zrotation Xrotation Yrotation 
JOINT LeftFoot
{
OFFSET -0.000000 -21.197514 0.000000
CHANNELS 3 Zrotation Xrotation Yrotation 
JOINT LeftToeBase
{
OFFSET -0.000000 -3.214623 7.418360
CHANNELS 3 Zrotation Xrotation Yrotation 
End Site
{
OFFSET -0.000000 0.000000 1.978229
}
}
}
}
}
JOINT RightUpLeg
{
OFFSET -4.945574 0.000000 0.000000
CHANNELS 3 Zrotation Xrotation Yrotation 
JOINT RightLeg
{
OFFSET -0.000000 -19.520680 0.000000
CHANNELS 3 Zrotation Xrotation Yrotation 
JOINT RightFoot
{
OFFSET -0.000000 -21.197514 0.000000
CHANNELS 3 Zrotation Xrotation Yrotation 
JOINT RightToeBase
{
OFFSET -0.000000 -3.214623 7.418360
CHANNELS 3 Zrotation Xrotation Yrotation 
End Site
{
OFFSET -0.000000 0.000000 1.978229
}
}
}
}
}
}
MOTION
Frames:    11
Frame Time:    0.008333
-25.925493    41.008465    -13.931627    -13.735163    -0.042556    69.673065    -3.492528    4.594828    0.215557    -6.497837    4.127725    7.050037    6.067515    28.906590    -0.723887    5.266828    -28.464918    6.830586    16.382515    12.015563    12.845826    -46.737705    -1.027613    -10.350368    22.671429    -18.664804    -78.688347    11.718153    -47.975075    7.485681    -0.119986    22.720722    -0.247178    55.832928    46.791748    -28.662086    -10.881739    -14.009918    104.417419    104.135574    -68.102905    98.242020    15.552494    -49.558998    -2.183862    1.778383    51.742954    -14.975842    -7.331329    -15.168015    -1.955186    0.345031    1.207056    -3.341825    -11.885144    -2.318854    3.177641    -9.293794    49.314705    -26.361795    1.388760    12.322415    26.224609    0.612543    0.505381    -4.366940    
-26.239590    40.853657    -14.017536    -13.600612    -0.049370    69.991249    -3.165914    4.630819    0.185662    -6.563882    3.575092    9.463494    4.314754    28.435503    -0.494367    7.017635    -28.122160    4.531417    15.076424    11.561659    12.469136    -46.316475    0.445711    -10.737827    21.517458    -18.946049    -82.575920    13.512513    -46.406677    9.108020    -0.374395    21.862038    0.801065    54.108181    47.633560    -27.143270    -11.694796    -15.426888    105.795258    106.339844    -67.976852    101.346260    15.517424    -50.298473    -2.189817    1.729286    52.139763    -14.942258    -7.523994    -14.793487    -2.300807    0.348224    1.192933    -3.376716    -12.625414    -0.050899    2.722914    -8.366796    46.854443    -26.114874    0.629993    13.717329    25.056149    0.619446    0.783286    -4.342551    
-26.561201    40.691876    -14.103609    -13.425632    -0.119346    70.172119    -2.729275    4.714956    0.153973    -6.735754    3.004877    11.994257    2.901505    28.012302    -0.320128    8.377299    -27.766537    2.033022    13.923807    11.174678    11.977116    -45.844006    1.959011    -11.253378    20.438135    -19.153181    -86.208069    14.544901    -45.121494    10.130639    -0.613523    20.845055    1.884215    51.784496    48.198605    -25.118940    -12.487454    -16.782856    106.857231    110.352997    -67.845398    106.937279    15.661325    -50.965923    -1.862939    1.907509    52.571445    -15.259933    -7.697432    -14.436299    -2.568250    0.351423    1.187033    -3.409401    -13.282323    2.150357    2.318012    -7.599067    44.308353    -25.612808    0.291014    15.329330    23.648073    0.641513    1.122073    -4.407681    
-26.891348    40.522880    -14.187039    -13.204063    -0.240632    70.241028    -2.222753    4.842552    0.121543    -6.968197    2.429413    14.590206    1.826251    27.652784    -0.194809    9.365230    -27.424332    -0.609164    12.929874    10.859853    11.378935    -45.359577    3.476765    -11.911094    19.435757    -19.292063    -89.567230    14.961662    -43.660191    10.599191    -0.838420    19.674150    3.001541    48.878746    48.417881    -22.622599    -13.331743    -18.123106    107.518326    116.892609    -68.167015    114.593750    15.965191    -51.556370    -1.290011    2.230827    53.018158    -15.798023    -7.877819    -14.091069    -2.790773    0.355161    1.188534    -3.445212    -13.865132    4.290189    1.884636    -7.043919    41.690926    -24.802059    0.475279    17.134666    21.924883    0.680331    1.449919    -4.585933    
-27.231710    40.346359    -14.264642    -12.930884    -0.406491    70.225037    -1.693173    5.010722    0.089466    -7.188577    1.866403    17.184961    1.170996    27.208559    -0.119596    9.818448    -26.869911    -3.752488    12.072085    10.614362    10.705235    -44.865562    4.985806    -12.773614    18.483055    -19.407251    -92.846962    14.481482    -40.817528    11.121140    -1.062332    18.359329    4.169684    45.480900    48.238434    -19.750000    -14.183599    -19.282782    107.552353    124.007309    -68.307991    122.663643    16.412727    -52.070293    -0.556227    2.611599    53.470013    -16.421261    -8.082196    -13.752588    -3.004308    0.359550    1.196185    -3.485527    -14.373055    6.362442    1.334997    -6.729383    39.045597    -23.588181    1.201160    19.014107    19.816799    0.738989    1.800776    -4.882388    
-27.583420    40.161827    -14.331772    -12.604408    -0.619488    70.151306    -1.160866    5.203294    0.056423    -7.306877    1.341727    19.704462    0.390080    26.991594    -0.038572    10.475657    -26.515591    -6.549247    11.246044    10.447360    9.935823    -44.036415    7.249915    -14.072783    18.526485    -20.226839    -95.121895    14.822233    -38.756966    11.837283    -1.383870    16.978577    5.461254    41.777794    47.595020    -16.597588    -14.998041    -20.109694    106.808098    129.858765    -68.186127    129.420105    16.979429    -52.510445    0.281466    3.039250    53.922077    -17.054697    -8.330414    -13.414764    -3.264092    0.363716    1.204820    -3.523346    -14.786772    8.361887    0.613230    -6.641047    36.424816    -21.918634    2.405272    20.780458    17.321236    0.816165    2.266790    -5.253768    
-27.953709    39.975292    -14.391606    -12.258619    -0.841849    70.037132    -0.665335    5.389764    0.023961    -7.288735    0.864251    22.079657    -0.502951    26.950108    0.051088    11.273768    -26.288162    -9.083102    10.423203    10.344225    9.110469    -43.196236    9.249187    -15.450125    18.248940    -20.774004    -97.548737    15.918672    -36.221100    12.698629    -1.795944    15.577527    6.901583    37.905483    46.494362    -13.271861    -15.795398    -20.568501    105.190239    134.281967    -67.928574    134.532089    17.645699    -52.916233    1.137219    3.366526    54.343876    -17.536299    -8.607037    -13.046616    -3.556467    0.366204    1.206257    -3.547008    -15.068558    10.194502    -0.272003    -6.633055    33.910713    -19.930700    2.940987    21.671446    14.746449    0.977093    4.382891    -5.635646    
-28.347635    39.791012    -14.442394    -11.932143    -1.062792    69.902252    -0.214926    5.527966    -0.006814    -7.136972    0.453290    24.248184    -1.422380    27.054190    0.144717    12.098450    -26.155544    -11.406409    9.606348    10.281085    8.264588    -42.329937    11.103601    -16.984293    17.732212    -21.097786    -100.096970    17.688303    -33.619808    13.683323    -2.250437    14.204681    8.486920    33.963497    44.982658    -9.813352    -16.632538    -20.663668    102.541870    137.171570    -67.536331    137.658569    18.401455    -53.323944    1.994002    3.597136    54.710186    -17.852381    -8.918158    -12.625054    -3.886061    0.366014    1.196277    -3.548127    -15.274828    11.838977    -1.163473    -6.690986    31.558573    -17.832033    4.211056    22.492489    12.085436    1.090052    5.518350    -5.955539    
-28.774626    39.613144    -14.481550    -11.669148    -1.314166    69.736465    0.236631    5.613876    -0.036915    -6.901375    0.076143    26.179546    -2.209770    27.282949    0.229355    12.799214    -26.095949    -13.540736    8.838326    10.235580    7.424189    -41.447128    12.880466    -18.765278    17.032871    -21.201603    -102.673935    19.968794    -31.404430    14.605769    -2.668527    12.889319    10.202432    30.056509    43.140995    -6.226479    -17.528715    -20.351395    98.667389    138.270401    -66.848946    138.398270    19.329340    -53.763363    2.908780    3.754150    55.008968    -18.044027    -9.265101    -12.132482    -4.242606    0.363388    1.177991    -3.528088    -15.322071    13.222618    -1.930665    -6.743682    29.443394    -15.923451    5.825968    22.990026    9.618513    1.127099    5.730151    -6.097854    
-29.225899    39.438099    -14.501975    -11.465355    -1.570507    69.615562    0.665755    5.590333    -0.063444    -6.632864    -0.224045    27.767513    -2.708490    27.601131    0.289345    13.262056    -26.068892    -15.467942    8.184563    10.189978    6.604157    -40.581440    14.597542    -20.885008    16.273258    -21.147644    -105.102722    22.180338    -29.648106    15.174767    -2.982105    11.617662    12.044155    26.325531    41.072609    -2.500052    -18.406298    -19.505281    93.371132    137.086716    -65.635178    136.304916    20.312895    -54.253555    3.771781    3.848481    55.237610    -18.159174    -9.635138    -11.579857    -4.599220    0.359675    1.157344    -3.498111    -15.198574    14.390242    -2.510007    -6.726876    27.581161    -14.408796    7.516233    23.086109    7.467323    1.062563    5.018103    -5.943187    
-29.698229    39.260437    -14.510247    -11.288379    -1.878176    69.479912    1.158840    5.521310    -0.090669    -6.420476    -0.475207    29.040581    -2.901038    27.928555    0.319127    13.514055    -25.987167    -17.126896    7.665251    10.117504    5.814925    -39.762238    16.254505    -23.323196    15.551808    -21.005861    -107.251884    23.768286    -28.454512    15.035098    -3.196919    10.342066    14.002993    22.932888    38.884514    1.425586    -19.084969    -17.960873    86.452293    132.481461    -63.705845    130.490799    21.413771    -54.749279    4.621394    3.889931    55.441048    -18.237968    -10.011674    -11.001140    -4.915824    0.356062    1.139188    -3.468282    -14.899871    15.337733    -2.775484    -6.623693    26.037933    -13.305724    9.103768    22.822784    5.590865    0.903418    3.610080    -5.416267    
